<svg
  xmlns="http://www.w3.org/2000/svg"
  width="64"
  height="64"
  viewBox="0 0 64 64">
  <rect width="64" height="64" rx="8" fill="#047857" />
  <path
    d="M11.1712 22.8182H18.4325V50.2955C18.4325 52.3182 18.0348 53.9545 17.2393 55.2045C16.4439 56.4545 15.3018 57.3693 13.8132 57.9489C12.3359 58.5284 10.5689 58.8182 8.51207 58.8182C8.26207 58.8182 8.02344 58.8125 7.79616 58.8011C7.55753 58.8011 7.30753 58.7955 7.04616 58.7841V53.108C7.23935 53.1193 7.4098 53.125 7.55753 53.125C7.69389 53.1364 7.84162 53.142 8.00071 53.142C9.17116 53.142 9.98935 52.892 10.4553 52.392C10.9325 51.9034 11.1712 51.1648 11.1712 50.1761V22.8182ZM14.7848 19.4432C13.7166 19.4432 12.7962 19.0852 12.0234 18.3693C11.2507 17.642 10.8643 16.7727 10.8643 15.7614C10.8643 14.7614 11.2507 13.9034 12.0234 13.1875C12.7962 12.4602 13.7166 12.0966 14.7848 12.0966C15.8757 12.0966 16.8018 12.4602 17.5632 13.1875C18.3359 13.9034 18.7223 14.7614 18.7223 15.7614C18.7223 16.7727 18.3359 17.642 17.5632 18.3693C16.8018 19.0852 15.8757 19.4432 14.7848 19.4432ZM24.2493 58.8182V22.8182H31.4084V27.2159H31.7322C32.0504 26.5114 32.5107 25.7955 33.1129 25.0682C33.7266 24.3295 34.522 23.7159 35.4993 23.2273C36.4879 22.7273 37.7152 22.4773 39.1811 22.4773C41.0902 22.4773 42.8516 22.9773 44.4652 23.9773C46.0788 24.9659 47.3686 26.4602 48.3345 28.4602C49.3004 30.4489 49.7834 32.9432 49.7834 35.9432C49.7834 38.8636 49.3118 41.3295 48.3686 43.3409C47.4368 45.3409 46.1641 46.858 44.5504 47.892C42.9482 48.9148 41.1527 49.4261 39.1641 49.4261C37.755 49.4261 36.5561 49.1932 35.5675 48.7273C34.5902 48.2614 33.7891 47.6761 33.1641 46.9716C32.5391 46.2557 32.0618 45.5341 31.7322 44.8068H31.5107V58.8182H24.2493ZM31.3572 35.9091C31.3572 37.4659 31.5732 38.8239 32.005 39.983C32.4368 41.142 33.0618 42.0455 33.88 42.6932C34.6982 43.3295 35.6925 43.6477 36.8629 43.6477C38.0447 43.6477 39.0447 43.3239 39.8629 42.6761C40.6811 42.017 41.3004 41.108 41.7209 39.9489C42.1527 38.7784 42.3686 37.4318 42.3686 35.9091C42.3686 34.3977 42.1584 33.0682 41.7379 31.9205C41.3175 30.7727 40.6982 29.875 39.88 29.2273C39.0618 28.5795 38.0561 28.2557 36.8629 28.2557C35.6811 28.2557 34.6811 28.5682 33.8629 29.1932C33.0561 29.8182 32.4368 30.7045 32.005 31.8523C31.5732 33 31.3572 34.3523 31.3572 35.9091Z"
    fill="#fff" />
</svg>